<?xml version="1.0" standalone="no"?>
<!DOCTYPE svg PUBLIC "-//W3C//DTD SVG 20010904//EN"
 "http://www.w3.org/TR/2001/REC-SVG-20010904/DTD/svg10.dtd">
<svg version="1.0" xmlns="http://www.w3.org/2000/svg"
 width="310.000000pt" height="310.000000pt" viewBox="0 0 310.000000 310.000000"
 preserveAspectRatio="xMidYMid meet">
<metadata>
Created by potrace 1.14, written by Peter Selinger 2001-2017
</metadata>
<g transform="translate(0.000000,310.000000) scale(0.100000,-0.100000)"
fill="#000000" stroke="none">
<path d="M1445 2929 c-258 -12 -474 -86 -706 -240 -294 -197 -518 -545 -585
-909 -22 -117 -24 -372 -5 -480 83 -462 377 -849 796 -1044 107 -51 283 -101
401 -116 122 -16 390 -8 479 14 307 74 505 184 715 396 187 188 313 419 372
682 31 138 33 444 5 578 -42 194 -123 382 -231 534 -88 123 -162 197 -328 332
-42 33 -173 106 -259 145 -110 48 -292 97 -393 105 -39 3 -82 6 -96 7 -14 2
-88 0 -165 -4z m235 -85 c230 -54 423 -242 486 -475 21 -79 24 -242 5 -319
-33 -132 -121 -277 -218 -355 -126 -103 -228 -142 -406 -156 -142 -11 -199
-22 -281 -56 -181 -75 -320 -228 -384 -420 -21 -66 -25 -96 -25 -198 0 -103 4
-132 26 -200 64 -192 204 -347 383 -420 72 -30 44 -32 -62 -5 -447 114 -811
454 -948 887 -82 261 -82 558 1 813 100 307 317 578 595 741 133 78 326 146
474 168 99 14 283 12 354 -5z m-60 -1999 l0 -285 45 0 44 0 3 103 3 102 30 0
30 0 3 -130 c2 -113 0 -131 -15 -142 -12 -9 -66 -13 -189 -13 -144 0 -175 3
-188 16 -41 40 -10 64 81 64 l73 0 0 250 0 249 -76 3 c-59 2 -79 7 -87 20 -8
12 -7 21 2 32 11 13 36 16 127 16 l114 0 0 -285z"/>
<path d="M1341 2624 l-31 -26 0 -278 0 -279 24 -28 24 -28 150 -3 c176 -4 204
4 222 66 7 24 10 127 8 295 l-3 259 -28 24 c-27 23 -34 24 -182 24 -151 0
-154 0 -184 -26z m309 -304 l0 -240 -125 0 -125 0 0 240 0 240 125 0 125 0 0
-240z"/>
</g>
</svg>
